<svg width="101" height="101" viewBox="0 0 101 101" fill="none" xmlns="http://www.w3.org/2000/svg">
<rect width="100.963" height="100.963" rx="12" fill="white"/>
<path d="M72.209 86.5389C69.0661 86.5389 64.6513 85.4024 58.0404 81.7096C50.0013 77.2023 43.7832 73.041 35.7876 65.0679C28.0786 57.3652 24.3272 52.3782 19.0767 42.8259C13.1452 32.0405 14.1564 26.3871 15.2866 23.9708C16.6326 21.0829 18.6195 19.3556 21.1875 17.6412C22.6462 16.6857 24.1898 15.8667 25.7988 15.1944C25.9598 15.1252 26.1095 15.0592 26.2431 14.9996C27.0401 14.6407 28.2477 14.0982 29.7772 14.6777C30.798 15.0608 31.7093 15.8448 33.1358 17.2533C36.0613 20.138 40.0591 26.5625 41.5339 29.7176C42.5241 31.8441 43.1794 33.2478 43.181 34.8222C43.181 36.6654 42.2536 38.0868 41.1282 39.6209C40.9173 39.909 40.708 40.1843 40.5051 40.4515C39.2799 42.0613 39.011 42.5265 39.1881 43.3571C39.5471 45.0264 42.2247 49.9958 46.625 54.3856C51.0253 58.7754 55.8523 61.2834 57.5284 61.6407C58.3946 61.8259 58.8695 61.5458 60.5311 60.2773C60.7694 60.0954 61.0142 59.907 61.2702 59.7187C62.9865 58.4422 64.3422 57.5391 66.1422 57.5391H66.1519C67.7185 57.5391 69.0597 58.2184 71.2816 59.3388C74.1797 60.8005 80.7987 64.746 83.7016 67.6741C85.1136 69.0971 85.901 70.005 86.2858 71.024C86.8654 72.5581 86.3196 73.7606 85.9638 74.5655C85.9042 74.6991 85.8382 74.8456 85.7689 75.0082C85.0912 76.614 84.2671 78.154 83.3071 79.6089C81.5956 82.1684 79.8616 84.15 76.9667 85.4974C75.4802 86.2005 73.8533 86.5566 72.209 86.5389Z" fill="#2C2C2C"/>
</svg>
