<svg width="85" height="85" viewBox="0 0 85 85" fill="none" xmlns="http://www.w3.org/2000/svg">
<path d="M42.2395 0C18.9128 0 0 18.9128 0 42.2395C0 65.5663 18.9128 84.4791 42.2395 84.4791C65.5663 84.4791 84.4791 65.5663 84.4791 42.2395C84.4791 18.9128 65.5663 0 42.2395 0ZM62.9862 28.9376L56.0519 61.6028C55.5415 63.919 54.1616 64.4822 52.2362 63.391L41.6763 55.6119L36.5865 60.5187C36.3371 60.8415 36.0171 61.103 35.651 61.283C35.2849 61.463 34.8824 61.5567 34.4745 61.5571H34.4569L35.2067 50.8071L54.7776 33.1299C55.6224 32.3801 54.5876 31.9542 53.4647 32.704L29.2861 47.9313L18.867 44.6789C16.6142 43.9643 16.5509 42.4261 19.3422 41.3208L60.0541 25.6288C61.9478 24.9389 63.5951 26.0794 62.9827 28.9411L62.9862 28.9376Z" fill="#2C2C2C"/>
</svg>
