<svg width="83" height="90" viewBox="0 0 83 90" fill="none" xmlns="http://www.w3.org/2000/svg">
<path fill-rule="evenodd" clip-rule="evenodd" d="M62.1537 2.30927C48.3596 -0.769756 34.0549 -0.769756 20.2608 2.30927L18.7745 2.63762C14.8944 3.50388 11.3307 5.42728 8.47939 8.19415C5.62805 10.961 3.60065 14.463 2.62242 18.3112C-0.874141 32.0695 -0.874141 46.4819 2.62242 60.2402C3.55531 63.9102 5.44336 67.2686 8.09516 69.9751C10.747 72.6815 14.0682 74.6397 17.7223 75.6511L19.761 87.8047C19.8261 88.1906 19.9936 88.5521 20.2461 88.8514C20.4985 89.1507 20.8268 89.377 21.1966 89.5066C21.5664 89.6363 21.9642 89.6646 22.3486 89.5885C22.7331 89.5125 23.0901 89.3349 23.3825 89.0743L35.3563 78.3786C44.3447 78.9264 53.3655 78.2086 62.1537 76.2465L63.6444 75.9182C67.5245 75.0519 71.0881 73.1285 73.9395 70.3616C76.7908 67.5948 78.8182 64.0927 79.7965 60.2446C83.2926 46.4863 83.2926 32.0739 79.7965 18.3156C78.8179 14.4669 76.7898 10.9645 73.9377 8.19753C71.0855 5.43061 67.5209 3.50754 63.64 2.642L62.1537 2.30927ZM23.9613 17.9566C23.1464 17.8381 22.3155 18.0019 21.6068 18.4207H21.5455C19.9013 19.3838 18.4194 20.5966 17.1567 22.0238C16.1044 23.2366 15.5345 24.4624 15.3854 25.6445C15.2977 26.345 15.3591 27.0543 15.5651 27.7241L15.6441 27.7679C16.8278 31.2397 18.3712 34.5802 20.2564 37.7237C22.6874 42.1389 25.6789 46.2224 29.1567 49.8729L29.262 50.0217L29.4286 50.1443L29.5294 50.2625L29.6522 50.3676C33.3207 53.851 37.4197 56.8523 41.8496 59.2989C46.9135 62.0527 49.987 63.353 51.8328 63.8959V63.9222C52.3721 64.0885 52.8631 64.163 53.3586 64.163C54.9306 64.047 56.4185 63.4089 57.5851 62.3504C59.0101 61.0895 60.2158 59.6054 61.154 57.9548V57.9242C62.0353 56.2605 61.7371 54.6932 60.4657 53.6293C57.9117 51.401 55.1501 49.4218 52.2186 47.7189C50.2544 46.655 48.2595 47.2986 47.4528 48.3756L45.7297 50.5471C44.8441 51.6241 43.2394 51.4753 43.2394 51.4753L43.1956 51.5015C31.2218 48.45 28.0256 36.3446 28.0256 36.3446C28.0256 36.3446 27.8765 34.6984 28.9858 33.8578L31.1429 32.1241C32.1776 31.2835 32.8966 29.2958 31.7874 27.3344C30.0933 24.4045 28.1152 21.6476 25.8816 19.1036C25.3945 18.5049 24.7113 18.0971 23.9525 17.9522L23.9613 17.9566ZM44.1908 12.6941C43.6094 12.6941 43.0518 12.9247 42.6407 13.3353C42.2296 13.7458 41.9986 14.3026 41.9986 14.8832C41.9986 15.4637 42.2296 16.0205 42.6407 16.431C43.0518 16.8416 43.6094 17.0722 44.1908 17.0722C49.7371 17.0722 54.3407 18.8804 57.9841 22.3478C59.8562 24.2435 61.3162 26.4895 62.272 28.95C63.2322 31.4148 63.6707 34.0461 63.5567 36.6817C63.5446 36.9692 63.5893 37.2562 63.6883 37.5264C63.7873 37.7966 63.9386 38.0447 64.1336 38.2565C64.5275 38.6843 65.0754 38.9383 65.6568 38.9627C66.2382 38.9871 66.8055 38.7798 67.2339 38.3865C67.6623 37.9932 67.9166 37.4461 67.9411 36.8656C68.0771 33.6235 67.5381 30.3886 66.3583 27.3651C65.1734 24.3273 63.3767 21.5646 61.0795 19.2481L61.0356 19.2043C56.5153 14.8919 50.7937 12.6941 44.1908 12.6941ZM44.0418 19.8917C43.4603 19.8917 42.9027 20.1223 42.4916 20.5328C42.0805 20.9434 41.8496 21.5002 41.8496 22.0807C41.8496 22.6613 42.0805 23.2181 42.4916 23.6286C42.9027 24.0392 43.4603 24.2698 44.0418 24.2698H44.1163C48.1148 24.5544 51.0261 25.8853 53.0648 28.07C55.1562 30.3203 56.2391 33.1179 56.1558 36.5766C56.1424 37.1572 56.3606 37.7193 56.7622 38.1392C57.1639 38.5592 57.7162 38.8027 58.2976 38.816C58.879 38.8294 59.4419 38.6115 59.8625 38.2104C60.283 37.8094 60.5268 37.2579 60.5402 36.6773C60.6454 32.1372 59.181 28.2188 56.2786 25.0929V25.0841C53.3104 21.9056 49.2373 20.2244 44.3355 19.8961L44.261 19.8873L44.0418 19.8917ZM43.9584 27.225C43.6651 27.1992 43.3695 27.2326 43.0893 27.3233C42.8092 27.4141 42.5502 27.5603 42.3279 27.7532C42.1056 27.9461 41.9245 28.1817 41.7954 28.446C41.6663 28.7104 41.5919 28.998 41.5765 29.2917C41.5612 29.5854 41.6053 29.8791 41.7062 30.1554C41.8071 30.4317 41.9627 30.6849 42.1637 30.8998C42.3648 31.1147 42.6071 31.287 42.8763 31.4063C43.1455 31.5257 43.436 31.5896 43.7305 31.5943C45.5631 31.6907 46.7338 32.2423 47.4703 32.9822C48.2113 33.7265 48.7637 34.9217 48.8646 36.7911C48.8701 37.0849 48.9347 37.3746 49.0546 37.6429C49.1746 37.9111 49.3474 38.1526 49.5628 38.3528C49.7782 38.553 50.0317 38.7078 50.3083 38.8081C50.5849 38.9083 50.8788 38.952 51.1727 38.9364C51.4665 38.9208 51.7542 38.8463 52.0185 38.7174C52.2829 38.5884 52.5186 38.4076 52.7115 38.1858C52.9045 37.9639 53.0507 37.7056 53.1415 37.4261C53.2324 37.1467 53.2659 36.8518 53.2402 36.5591C53.0999 33.9322 52.2756 31.6118 50.5876 29.9044C48.8909 28.1969 46.5803 27.3651 43.9584 27.225Z" fill="#2C2C2C"/>
</svg>
