<svg width="84" height="84" viewBox="0 0 84 84" fill="none" xmlns="http://www.w3.org/2000/svg">
<path d="M71.2879 12.142C67.4434 8.27804 62.8642 5.2144 57.8172 3.12978C52.7702 1.04517 47.3567 -0.018693 41.8922 0.00024855C18.9961 0.00024855 0.335473 18.5676 0.335473 41.349C0.335473 48.6508 2.26444 55.7439 5.87077 62.0026L0 83.4488L22.0154 77.6909C28.0958 80.9871 34.9311 82.7395 41.8922 82.7395C64.7882 82.7395 83.4488 64.1722 83.4488 41.3907C83.4488 30.3338 79.1296 19.9445 71.2879 12.142ZM41.8922 75.7298C35.6859 75.7298 29.6055 74.0609 24.2798 70.9315L23.0218 70.1805L9.93838 73.6019L13.4189 60.9177L12.5802 59.6243C9.13218 54.1457 7.30131 47.8131 7.29653 41.349C7.29653 22.4062 22.8121 6.96821 41.8502 6.96821C51.0757 6.96821 59.7561 10.5565 66.2559 17.0655C69.4742 20.2531 72.0247 24.0445 73.7595 28.2202C75.4943 32.3958 76.3789 36.8725 76.362 41.3907C76.4458 60.3336 60.9302 75.7298 41.8922 75.7298ZM60.8464 50.0277C59.798 49.527 54.682 47.0235 53.7595 46.648C52.795 46.3142 52.1241 46.1473 51.4112 47.1487C50.6983 48.1918 48.7274 50.5284 48.1403 51.196C47.5532 51.9053 46.9242 51.9887 45.8759 51.4463C44.8275 50.9456 41.4728 49.8191 37.531 46.3142C34.4279 43.5604 32.3731 40.1807 31.7441 39.1376C31.157 38.0945 31.6602 37.5521 32.2054 37.0097C32.6666 36.5507 33.2537 35.7997 33.7569 35.2155C34.2601 34.6314 34.4698 34.1724 34.8053 33.5049C35.1408 32.7955 34.973 32.2114 34.7214 31.7107C34.4698 31.21 32.3731 26.1197 31.5344 24.0334C30.6957 22.0307 29.8151 22.281 29.1861 22.2393H27.1733C26.4604 22.2393 25.3701 22.4896 24.4056 23.5328C23.4831 24.5759 20.7993 27.0793 20.7993 32.1697C20.7993 37.26 24.5314 42.1835 25.0346 42.8511C25.5379 43.5604 32.3731 53.9915 42.7728 58.456C45.2469 59.5408 47.1758 60.1667 48.6855 60.6257C51.1596 61.4184 53.424 61.2932 55.2272 61.0429C57.24 60.7508 61.3915 58.5394 62.2302 56.1194C63.1108 53.6994 63.1108 51.6549 62.8173 51.196C62.5237 50.737 61.8947 50.5284 60.8464 50.0277Z" fill="#2C2C2C"/>
</svg>
