<svg width="872" height="303" viewBox="0 0 872 303" fill="none" xmlns="http://www.w3.org/2000/svg">
<path d="M647.877 0H726.059V108.725C738.784 79.9983 762.059 66.9083 790.785 66.9083C816.107 66.9083 832.03 75.9266 840.768 93.122C841.642 94.8438 842.444 96.6441 843.174 98.5229C849.074 113.481 852.388 134.058 839.466 145.869C838.031 147.181 836.393 148.387 834.537 149.464C828.973 153.283 821.682 159.453 826.169 166.183C827.851 168.987 829.921 171.371 832.248 173.446C833.415 174.483 834.643 175.448 835.927 176.345C837.229 177.248 838.608 178.028 840.033 178.729C841.463 179.43 842.944 180.047 844.463 180.624C854.766 183.569 866.544 186.934 870.47 197.59C874.956 209.928 859.253 214.976 852.753 222.239C851.799 223.4 850.992 224.645 850.42 226.008C849.848 227.37 849.494 228.862 849.449 230.517C849.337 231.902 849.332 233.276 849.32 234.645C849.32 266.052 849.32 293.09 849.32 293.09H772.233C772.233 293.09 772.233 267.095 772.233 237.925C772.233 236.602 772.233 235.267 772.233 233.932C772.771 221.885 787.353 217.96 789.036 207.864C789.664 203.03 787.538 199.295 784.184 196.042C783.068 194.959 781.812 193.928 780.483 192.924C770.64 183.569 741.476 179.082 752.132 160.574C756.619 152.162 768.957 149.918 771.083 139.868C771.206 138.438 771.089 136.991 770.73 135.51C770.36 133.531 769.894 131.742 769.328 130.137C767.056 123.727 763.147 120.368 756.602 120.368C750.556 120.368 745.346 125.752 741 134.546C740.13 136.307 739.289 138.202 738.403 140.221C737.87 141.865 737.135 143.396 736.159 144.837C734.197 147.675 731.392 149.358 729.003 151.32C727.657 152.195 726.244 153.003 724.802 153.783C720.478 156.121 715.851 158.224 711.645 161.309C708.28 164.113 704.915 168.039 707.158 172.526C707.719 173.743 708.387 174.831 709.144 175.829C709.895 176.827 710.737 177.73 711.645 178.572C717.955 184.606 730.181 188.403 737.365 194.242C738.801 195.408 740.04 196.659 740.983 198.022C742.491 200.573 743.613 204.499 742.491 207.859C742.02 209.356 741.274 210.697 740.343 211.942C735.694 218.161 726.491 221.986 725.032 230.909C725.032 230.909 724.965 233.394 724.965 237.376C724.965 253.293 724.965 293.09 724.965 293.09H647.877C647.877 293.09 647.877 271.458 647.877 239.95C647.877 238.447 647.877 236.927 647.883 235.385C647.148 223.007 660.609 217.399 664.534 207.864C667.058 202.396 664.77 198.504 660.362 195.363C658.892 194.314 657.187 193.35 655.348 192.441C646.15 187.371 630.845 186.182 624.176 178.347C623.223 177.231 622.443 175.975 621.888 174.556C617.631 164.988 626.044 156.576 634.361 153.558C636.01 152.566 637.631 151.55 639.151 150.44C640.665 149.335 642.073 148.129 643.279 146.766C644.069 145.903 644.798 144.972 645.449 143.945C646.083 142.857 646.627 141.719 647.042 140.502C647.457 139.279 647.743 137.978 647.861 136.565C647.883 134.905 647.883 133.245 647.883 131.584C647.922 127.973 647.922 124.608 647.855 121.484C647.849 119.818 647.849 118.158 647.849 116.503C647.928 103.301 646.806 90.4019 647.861 76.7623C647.878 75.0741 647.883 73.4028 647.889 71.754C647.877 30.4649 647.877 0 647.877 0Z" fill="white"/>
<path d="M49.3596 161.118C55.9663 155.589 66.0614 153.906 70.8174 145.247C71.2716 143.929 71.4792 142.482 71.3446 140.855C70.9183 139.582 70.2677 138.326 69.3311 137.103C68.7366 136.01 68.1309 134.893 67.5084 133.749C43.8858 90.2562 0 9.47266 0 9.47266H78.5458L126.907 102.561L177.45 9.47266H249.451C249.451 9.47266 206.115 85.1301 180.019 130.698C178.774 132.869 177.573 134.972 176.412 136.991C175.308 138.752 174.337 140.474 173.221 142.039C172.105 143.603 170.843 145.005 169.161 146.127C156.923 153.351 140.098 156.155 133.368 170.176C132.246 173.541 132.807 177.467 135.611 180.271C147.389 189.805 163.093 185.88 174.5 195.425C175.846 196.474 177.046 197.59 178.056 198.813C181.062 202.469 182.341 207.029 180.49 213.254C177.686 223.349 161.421 225.032 160.726 236.271C160.726 237.595 160.726 238.913 160.726 240.231C160.726 269.148 160.726 295.294 160.726 295.294H82.18C82.18 295.294 82.18 272.215 82.18 245.172C82.18 243.747 82.18 242.317 82.18 240.87C81.7818 235.127 82.9035 229.519 87.3902 226.154C93.5595 221.667 100.29 217.741 101.972 210.45C103.374 205.683 101.972 201.757 99.2127 198.555C98.293 197.489 97.2217 196.502 96.0496 195.593C83.4531 187.001 67.7496 187.562 53.7285 182.514C49.8027 180.832 45.8768 179.71 43.0726 176.345C39.7075 172.419 42.5117 167.372 45.1084 164.248C47.6266 162.229 49.3596 161.118 49.3596 161.118Z" fill="white"/>
<path d="M244.442 232.564C253.791 226.26 269.495 219.53 264.206 205.621C263.769 204.472 263.191 203.44 262.496 202.492C259.714 198.712 255.104 196.345 250.987 193.726C249.164 193.025 247.269 192.385 245.334 191.769C233.601 187.557 220.141 186.996 210.607 177.461C206.12 172.414 203.876 164.001 208.924 158.393C215.093 151.663 223.506 149.419 230.258 144.439C231.234 143.57 232.132 142.633 232.95 141.613C233.769 140.592 234.515 139.487 235.166 138.27C235.721 136.901 236.125 135.449 236.31 133.873C236.338 132.314 236.338 130.766 236.338 129.235C236.338 100.116 236.338 76.011 236.338 76.011H313.425C313.425 76.011 313.425 101.165 313.425 129.751C313.425 131.254 313.425 132.768 313.425 134.288C307.531 146.11 288.462 152.841 292.388 167.983C292.854 169.946 293.746 171.612 294.901 173.087C296.056 174.556 297.481 175.835 299.029 177.013C306.892 182.262 318.518 187.388 325.226 195.01C326.342 196.283 327.329 197.618 328.153 199.031C335.685 212.121 319.421 218.852 315.495 227.825C311.569 236.238 319.421 249.698 328.394 246.894C340.172 243.529 350.828 235.116 359.605 226.311C360.861 225.021 362.095 223.714 363.312 222.396C365.746 219.755 368.13 217.062 370.497 214.37C371.938 212.682 372.847 211.056 373.295 209.474C376.436 198.42 356.919 189.873 348.461 183.289C347.126 182.341 345.808 181.387 344.552 180.4C339.533 176.441 335.528 171.887 335.36 164.742C335.528 162.874 336.011 160.911 336.857 158.836C337.665 157.664 338.663 156.593 339.841 155.656C340.991 154.534 342.253 153.508 343.565 152.498C347.491 149.481 351.837 146.677 354.642 142.196C355.763 140.513 356.324 139.392 356.582 137.939C357.25 135.841 357.704 133.677 357.788 131.4C357.788 129.42 357.788 127.07 357.788 124.479C357.788 106.302 357.788 76.0166 357.788 76.0166H434.876C434.876 76.0166 434.876 96.7284 434.876 125.427C434.876 126.935 434.876 128.466 434.87 130.02C436.625 144.372 421.483 149.98 413.07 158.954C411.948 160.636 410.827 161.758 410.187 164.113C409.896 165.448 409.896 166.895 410.266 168.488C413.07 184.752 432.139 189.8 445.711 196.188C447.102 197.029 448.369 197.983 449.564 199.048C450.753 200.114 451.875 201.28 452.901 202.593C454.163 204.275 454.993 205.891 455.47 207.438C455.868 209.783 455.784 212.077 455.223 214.197C451.779 224.466 440.002 228.391 437.197 237.926C436.917 239.143 436.653 240.371 436.407 241.616C434.483 252.996 435.044 264.212 434.909 275.418C434.898 277.196 434.887 278.996 434.876 280.819C434.87 283.09 434.87 285.126 434.87 286.91C434.87 292.254 434.87 295.283 434.87 295.283H363.968C363.968 295.283 361.31 271.554 359.981 259.692C359.538 255.738 359.257 253.102 359.257 253.102C358.854 254.308 358.45 255.497 358.029 256.658C357.216 258.896 356.347 261.049 355.421 263.113C343.391 289.949 321.905 302.198 294.884 302.198C263.197 302.198 246.237 287.874 239.641 261.335C239.131 259.294 238.671 257.179 238.234 254.97C238.654 248.133 238.654 241.403 242.148 235.767C242.782 234.707 243.545 233.647 244.442 232.564Z" fill="white"/>
<path d="M463.249 262.788C467.018 254.117 472.065 245.144 480.837 241.481C482.132 240.562 483.579 239.771 485.127 239.07C499.053 232.749 521.212 233.607 520.202 214.931C519.641 203.154 507.864 196.424 498.672 190.518C497.118 189.727 495.469 188.802 493.82 187.753C485.576 182.526 477.399 174.265 482.071 164.45C488.24 152.111 503.943 152.672 515.721 148.186C520.769 145.942 525.255 143.699 529.26 139.616C530.056 138.73 530.768 137.793 531.352 136.761C532.3 135.168 533.096 133.733 533.786 132.476C535.866 128.708 537.05 126.554 537.05 126.554H462.138V76.011C462.138 76.011 570.549 76.011 612.242 76.011C614.227 76.011 616.061 76.011 617.71 76.0222C621.243 76.8803 626.852 75.7586 626.852 76.3195C628.871 91.9669 628.618 108.523 621.456 122.819C620.66 124.406 619.779 125.971 618.804 127.496C607.783 140.816 592.64 150.911 576.253 157.916C574.593 158.427 572.888 158.903 571.183 159.391C560.936 162.296 550.678 165.359 551.043 175.661C551.256 181.129 554.223 185.336 558.581 188.499C560.033 189.553 561.637 190.49 563.348 191.325C572.916 195.851 583.572 198.095 593.106 202.582C599.836 205.947 602.64 214.359 598.574 220.719C597.75 222.071 596.684 223.333 595.349 224.454C584.132 235.11 563.942 230.063 556.09 245.205C574.037 245.205 592.545 245.205 610.688 245.093C612.601 245.093 614.412 245.093 616.084 245.093C622.763 245.093 627.222 245.093 627.222 245.093V295.272H461.045C461.045 295.272 461.045 294.414 461.056 292.984C460.91 291.469 460.792 289.977 460.691 288.497C460.282 281.026 461.404 274.296 461.993 267.157C462.15 265.665 462.576 264.179 463.249 262.788Z" fill="white"/>
</svg>
